PathFileType	4	(X/Y/Z)	./resultDataOpenSim/trcMotMarkerGrf/sub09/qtm-14-02.trc
DataRate	CameraRate	NumFrames	NumMarkers	Units	OrigDataRate	OrigDataStartFrame	OrigNumFrames
250.000000	250.000000	9	24	m	250.000000	311	496
Frame#	Time	L.Toe.Tip			R.Toe.Tip			L.Ankle.Lat			R.Ankle.Lat			L.Ankle.Med			R.Ankle.Med			L.Heel			R.Heel			L.Knee.Lat			R.Knee.Lat			L.Knee.Med			R.Knee.Med			L.Thigh.Upper			R.Thigh.Upper			L.ASIS			R.ASIS			V.Sacral			L.Acromium			R.Acromium			C7			L.Elbow			R.Elbow			L.Wrist.Lat			R.Wrist.Lat
		X1	Y1	Z1	X2	Y2	Z2	X3	Y3	Z3	X4	Y4	Z4	X5	Y5	Z5	X6	Y6	Z6	X7	Y7	Z7	X8	Y8	Z8	X9	Y9	Z9	X10	Y10	Z10	X11	Y11	Z11	X12	Y12	Z12	X13	Y13	Z13	X14	Y14	Z14	X15	Y15	Z15	X16	Y16	Z16	X17	Y17	Z17	X18	Y18	Z18	X19	Y19	Z19	X20	Y20	Z20	X21	Y21	Z21	X22	Y22	Z22	X23	Y23	Z23	X24	Y24	Z24

311	1.24	0.17892789	-0.020272848	0.023950385	1.0362021	0.039577477	0.030624918	0.13439377	0.12373113	-0.063896125	0.88754066	0.052206489	0.06673981	0.17200135	0.12569221	0.02620435	0.89803178	0.095451199	-0.023795013	0.075851087	0.16026647	-0.01600062	0.81864395	0.031255176	0.018260943	0.4428838	0.41123538	-0.11556288	0.90674378	0.50665144	0.14379331	0.4600283	0.39579974	0.0079801186	0.88451407	0.50134293	0.019927715	0.5831663	0.799421	-0.13681779	0.66259289	0.8199315	0.23149233	0.69837987	0.8669153	-0.094962507	0.72825718	0.89420869	0.14195156	0.5564033	0.95205031	0.042419388	0.7724781	1.3265813	-0.12619627	0.74333328	1.3375184	0.20322486	0.69409027	1.389564	0.032276356	0.63876913	0.97329532	-0.21461812	0.54087363	1.048393	0.28323984	0.89495947	0.87334403	-0.18463927	0.57709611	0.79453247	0.38023541
312	1.244	0.18053005	-0.01857746	0.02259232	1.0362595	0.039441783	0.030477829	0.13991195	0.12794714	-0.064277502	0.88738112	0.052222865	0.066599602	0.17796065	0.12864989	0.025683837	0.89824418	0.09514088	-0.024035886	0.082516964	0.16596339	-0.015996905	0.81856524	0.031243002	0.018161368	0.45326701	0.40949575	-0.11696043	0.91148257	0.50538746	0.14381777	0.47034042	0.39378221	0.0063750691	0.89022959	0.50132789	0.01998642	0.58827083	0.79847726	-0.13612929	0.66807953	0.82053041	0.2318911	0.70516222	0.86643674	-0.094278692	0.73494949	0.89481947	0.14268634	0.5634483	0.95165446	0.042448686	0.77969157	1.3260189	-0.12608887	0.75065414	1.3370185	0.20328824	0.70107511	1.3893912	0.032335585	0.64464814	0.97328801	-0.21413161	0.54856577	1.0475914	0.28329791	0.89980734	0.8708935	-0.18440841	0.58444805	0.79359312	0.38013226
313	1.248	0.1821598	-0.016647057	0.021032594	1.0363026	0.039320963	0.030365794	0.14574897	0.13248341	-0.064613994	0.88722382	0.052231453	0.066389545	0.18412841	0.13180432	0.02526131	0.89852868	0.094743563	-0.024360909	0.089506096	0.17193155	-0.015890939	0.81851137	0.031237614	0.017993315	0.46387111	0.40775607	-0.11836337	0.91581067	0.50384096	0.14372434	0.48086965	0.39180616	0.004753994	0.89577063	0.50068592	0.019973463	0.59266762	0.79744254	-0.13438014	0.67380953	0.82121746	0.23213091	0.71183083	0.86610799	-0.093673376	0.74156326	0.89547959	0.14331892	0.57057495	0.95137852	0.042638693	0.78683534	1.3255361	-0.12592964	0.75785847	1.336665	0.20332675	0.70796682	1.3893344	0.032366299	0.65051484	0.9733854	-0.2136512	0.55618478	1.0468418	0.2833315	0.90454502	0.86839719	-0.18420554	0.59194564	0.79272507	0.37994302
314	1.252	0.18384516	-0.014387031	0.01922594	1.0363734	0.039217008	0.030231159	0.15187639	0.13731852	-0.064922206	0.88716953	0.052202049	0.066132259	0.19050938	0.13516589	0.024902981	0.89892426	0.094350935	-0.024710457	0.096812602	0.17812719	-0.015676958	0.81851611	0.031262769	0.01778955	0.47470673	0.4060529	-0.11977201	0.92007305	0.50220301	0.14366253	0.49167156	0.38996821	0.0031546667	0.90128504	0.49960192	0.019884675	0.5973616	0.79657518	-0.13252918	0.67980578	0.82196162	0.23227308	0.71841577	0.86588238	-0.09313686	0.7480787	0.89611981	0.14386815	0.57780005	0.95122865	0.043026854	0.79388643	1.3251384	-0.12572438	0.76495753	1.3364488	0.20334192	0.71481557	1.3893794	0.03239121	0.65635964	0.97357599	-0.21316947	0.5637571	1.0461428	0.28336298	0.90917733	0.8658546	-0.18402973	0.5995665	0.79194043	0.37967891
315	1.256	0.18561647	-0.011708117	0.017143101	1.0364843	0.039123658	0.030114338	0.15825555	0.14243188	-0.065233763	0.88725184	0.052128744	0.065892026	0.19710059	0.13875053	0.024581015	0.89942284	0.094020225	-0.02500731	0.10441713	0.18453294	-0.015393316	0.81858123	0.031322792	0.017596534	0.48574803	0.40443126	-0.12114945	0.92449925	0.50064084	0.1437508	0.50262313	0.38833075	0.0016734734	0.90682581	0.49823845	0.019737357	0.60336723	0.79583192	-0.1314486	0.6860306	0.82271895	0.23236428	0.72491811	0.86575424	-0.092664384	0.75448238	0.89670206	0.14435731	0.58502231	0.9511887	0.043557786	0.80082017	1.324843	-0.12549836	0.77195391	1.3363707	0.2033365	0.72165759	1.3895033	0.032452246	0.66217993	0.97385363	-0.21268682	0.57130937	1.0455168	0.28341582	0.91371236	0.86327261	-0.18388245	0.60725745	0.79125868	0.37935432
316	1.26	0.18751824	-0.0085462131	0.014777664	1.0366088	0.039036943	0.030079348	0.16485724	0.14780254	-0.06558067	0.88743055	0.052012863	0.065722393	0.20389299	0.14257028	0.024271971	0.89998352	0.093765417	-0.025199111	0.11231089	0.19114175	-0.015080539	0.818673	0.031403251	0.017452536	0.49694009	0.40291186	-0.12243565	0.92909983	0.4992494	0.14399022	0.51346781	0.38686825	0.00041206504	0.91236239	0.49671724	0.019560186	0.61144519	0.79497808	-0.13168027	0.69242145	0.82344198	0.2324279	0.73131898	0.86574539	-0.092258832	0.76076993	0.89721234	0.14480553	0.59191201	0.95122749	0.044016652	0.80761571	1.3246724	-0.12528825	0.77884467	1.3364382	0.20331626	0.72848581	1.3896848	0.032578562	0.66797791	0.97421908	-0.21220382	0.5788444	1.0450056	0.28349128	0.91815392	0.86066824	-0.18376502	0.61498665	0.79069457	0.37897376
317	1.264	0.18963289	-0.0048701413	0.012153866	1.0367051	0.038961558	0.030114969	0.171671	0.15341051	-0.065965102	0.88762454	0.051864179	0.065635	0.2108815	0.14662139	0.023954105	0.90053545	0.093581976	-0.025278489	0.12049893	0.19794414	-0.014747765	0.81874645	0.031485924	0.017375428	0.50824196	0.40149061	-0.12359294	0.93373902	0.49804279	0.14429585	0.52406843	0.3854932	-0.00059482097	0.91782866	0.49513245	0.01938622	0.62109201	0.79402127	-0.13297685	0.69892486	0.82407606	0.23247106	0.73760397	0.86586856	-0.091922767	0.76694857	0.8976465	0.14522328	0.59790939	0.95134256	0.044057389	0.81426629	1.3246413	-0.12512425	0.78562981	1.3366558	0.20328659	0.73525558	1.3899186	0.032758501	0.67375236	0.97467851	-0.21171613	0.58634019	1.0446467	0.28357142	0.92249387	0.85806284	-0.18367965	0.62277992	0.79025067	0.3785318
318	1.268	0.19206946	-0.0006795253	0.0093233443	1.0367475	0.038903159	0.030153767	0.17870427	0.15924878	-0.066362038	0.88776566	0.051711707	0.065611611	0.21807447	0.1508801	0.023606484	0.90100205	0.09346526	-0.025272069	0.12898338	0.20492163	-0.014383148	0.818773	0.031562014	0.017359965	0.51964068	0.40017493	-0.12462925	0.93826249	0.49697317	0.14457512	0.53463847	0.38412202	-0.0014337022	0.92315948	0.49357073	0.0192418	0.63061301	0.79322514	-0.13434338	0.70550006	0.82456211	0.23249347	0.74377544	0.86611781	-0.091649885	0.77303667	0.89800518	0.14561224	0.60253444	0.95158794	0.043415279	0.82078155	1.3247516	-0.12502197	0.79231498	1.3370176	0.20324787	0.74191728	1.3902285	0.032938061	0.67949812	0.97523842	-0.21121935	0.59374642	1.0444474	0.28363615	0.92671722	0.85547406	-0.18363448	0.63067747	0.78992155	0.378021
319	1.272	0.19491585	0.0039973338	0.0063608295	1.0367353	0.038857774	0.030160559	0.18597164	0.16531928	-0.06675659	0.88783223	0.051592985	0.065629285	0.22548966	0.15531315	0.02320817	0.90134221	0.09340572	-0.025215982	0.13774613	0.212038	-0.013981705	0.81874624	0.031629819	0.017383462	0.5311222	0.39900496	-0.12558056	0.9425813	0.49597545	0.14477533	0.54569014	0.38273307	-0.0022999294	0.9282919	0.49211719	0.019143507	0.6387379	0.79270813	-0.13495212	0.71210246	0.82485941	0.23249616	0.74984665	0.86648312	-0.09143112	0.77905523	0.89829337	0.1459653	0.60601468	0.95201718	0.042245086	0.82716803	1.3249947	-0.12498585	0.79890721	1.337509	0.20319626	0.74844592	1.3906576	0.033054359	0.68521333	0.97589615	-0.21071512	0.600993	1.0443862	0.28367094	0.93081598	0.85291009	-0.18364306	0.63867422	0.78969953	0.37743464
